<svg data-name="Groupe 12779" xmlns="http://www.w3.org/2000/svg" width="38.29" height="38.29" viewBox="0 0 38.29 38.29"><circle data-name="Ellipse 3" cx="19.145" cy="19.145" r="19.145" fill="#34e0a1"/><path data-name="Tracé 103" d="M30.968 14.841l2.31-2.513h-5.123a16.007 16.007 0 00-18.007 0H5.012l2.31 2.513a7.062 7.062 0 109.558 10.4l2.263 2.464 2.263-2.462a7.064 7.064 0 109.562-10.4zm-18.886 10a4.779 4.779 0 114.779-4.779 4.778 4.778 0 01-4.781 4.777zm7.063-4.918a7.8 7.8 0 00-5.305-7 13.787 13.787 0 0110.608 0 7.8 7.8 0 00-5.303 6.998zm7.061 4.918a4.779 4.779 0 114.779-4.779 4.778 4.778 0 01-4.779 4.777zm0-7.286a2.5 2.5 0 102.5 2.5 2.5 2.5 0 00-2.5-2.502zm-11.62 2.507a2.5 2.5 0 11-2.5-2.5 2.5 2.5 0 012.501 2.498z"/></svg>